<?xml version="1.0" encoding="UTF-8"?>
<svg xmlns="http://www.w3.org/2000/svg" xmlns:xlink="http://www.w3.org/1999/xlink" width="100px" height="100px" viewBox="0 0 100 100" version="1.1">
<g id="surface1">
<path style=" stroke:none;fill-rule:nonzero;fill:rgb(0%,0%,0%);fill-opacity:1;" d="M 46.738281 3.417969 C 42.8125 4.121094 39.257812 6.035156 36.503906 8.945312 C 32.949219 12.65625 31.25 17.070312 31.25 22.65625 L 31.25 24.941406 L 28.867188 25.039062 C 26.914062 25.136719 26.210938 25.234375 25.136719 25.644531 C 22.050781 26.835938 19.667969 29.414062 18.808594 32.519531 C 18.515625 33.554688 18.242188 38.730469 16.777344 69.375 C 15.839844 89.082031 15.820312 88.515625 17.070312 91.152344 C 18.359375 93.847656 21.191406 96.035156 24.179688 96.660156 C 24.902344 96.816406 32.773438 96.875 50.058594 96.875 C 77.421875 96.875 76.191406 96.914062 78.59375 95.644531 C 80.3125 94.746094 82.011719 92.988281 82.890625 91.191406 C 84.179688 88.59375 84.160156 89.160156 83.222656 69.375 C 81.757812 38.730469 81.484375 33.554688 81.191406 32.519531 C 80.761719 30.957031 79.921875 29.492188 78.75 28.28125 C 76.5625 25.996094 74.726562 25.214844 71.171875 25.058594 L 68.808594 24.941406 L 68.691406 21.894531 C 68.554688 17.460938 67.714844 14.707031 65.527344 11.425781 C 61.503906 5.371094 53.886719 2.128906 46.738281 3.417969 Z M 52.636719 9.667969 C 56.171875 10.410156 59.453125 12.949219 61.09375 16.210938 C 62.128906 18.28125 62.5 19.980469 62.5 22.792969 L 62.5 25 L 37.5 25 L 37.5 22.792969 C 37.5 20.019531 37.871094 18.300781 38.886719 16.210938 C 41.347656 11.230469 47.070312 8.496094 52.636719 9.667969 Z M 72.96875 31.621094 C 74.0625 32.109375 74.941406 33.242188 75.175781 34.453125 C 75.292969 35 75.917969 47.070312 76.601562 61.269531 C 77.617188 82.871094 77.773438 87.207031 77.558594 87.890625 C 77.265625 88.90625 76.035156 90.136719 75.058594 90.410156 C 74.023438 90.703125 25.976562 90.703125 24.941406 90.410156 C 23.964844 90.136719 22.734375 88.90625 22.441406 87.890625 C 22.226562 87.207031 22.382812 82.910156 23.398438 61.25 C 24.082031 47.070312 24.707031 35 24.824219 34.453125 C 25.058594 33.242188 25.9375 32.109375 27.03125 31.621094 C 27.792969 31.269531 28.847656 31.25 50 31.25 C 71.152344 31.25 72.207031 31.269531 72.96875 31.621094 Z M 72.96875 31.621094 "/>
<path style=" stroke:none;fill-rule:nonzero;fill:rgb(0%,0%,0%);fill-opacity:1;" d="M 34.375 35.175781 C 32.636719 35.878906 31.855469 38.164062 32.871094 39.648438 C 33.613281 40.761719 34.257812 41.113281 35.527344 41.113281 C 36.953125 41.113281 37.890625 40.46875 38.378906 39.179688 C 39.335938 36.699219 36.816406 34.199219 34.375 35.175781 Z M 34.375 35.175781 "/>
<path style=" stroke:none;fill-rule:nonzero;fill:rgb(0%,0%,0%);fill-opacity:1;" d="M 63.027344 35.351562 C 61.054688 36.425781 60.839844 39.199219 62.65625 40.585938 C 63.574219 41.269531 65.292969 41.347656 66.152344 40.703125 C 68.046875 39.296875 68.066406 36.894531 66.171875 35.488281 C 65.410156 34.921875 63.945312 34.863281 63.027344 35.351562 Z M 63.027344 35.351562 "/>
</g>
</svg>
