<?xml version="1.0" encoding="UTF-8"?>
<svg xmlns="http://www.w3.org/2000/svg" xmlns:xlink="http://www.w3.org/1999/xlink" width="100px" height="100px" viewBox="0 0 100 100" version="1.1">
<g id="surface1">
<path style=" stroke:none;fill-rule:nonzero;fill:rgb(0%,0%,0%);fill-opacity:1;" d="M 89.84375 2.734375 C 89.628906 2.949219 89.453125 3.28125 89.453125 3.476562 C 89.453125 4.199219 89.960938 4.550781 91.71875 4.980469 L 93.457031 5.410156 L 90.839844 7.128906 C 87.890625 9.082031 87.480469 9.628906 87.871094 10.9375 C 88.261719 12.265625 88.730469 12.5 91.738281 12.910156 C 95.195312 13.378906 95.605469 13.378906 96.09375 12.890625 C 96.601562 12.382812 96.582031 11.992188 96.035156 11.445312 C 95.664062 11.074219 95.214844 10.957031 93.359375 10.742188 C 92.128906 10.605469 90.9375 10.429688 90.742188 10.351562 C 90.449219 10.253906 90.859375 9.902344 92.734375 8.710938 C 95.683594 6.816406 95.800781 6.679688 95.800781 5.351562 C 95.800781 3.847656 95.351562 3.457031 92.832031 2.832031 C 90.429688 2.246094 90.332031 2.246094 89.84375 2.734375 Z M 89.84375 2.734375 "/>
<path style=" stroke:none;fill-rule:nonzero;fill:rgb(0%,0%,0%);fill-opacity:1;" d="M 72.65625 7.617188 C 69.101562 8.261719 68.984375 8.300781 68.828125 8.886719 C 68.652344 9.609375 68.808594 10.039062 69.335938 10.273438 C 69.726562 10.46875 70.429688 10.410156 72.949219 9.960938 C 75.800781 9.453125 76.113281 9.433594 76.425781 9.707031 C 76.601562 9.882812 76.757812 10.097656 76.757812 10.175781 C 76.757812 10.253906 75.390625 12.363281 73.691406 14.863281 C 71.054688 18.808594 70.625 19.53125 70.546875 20.3125 C 70.390625 22.070312 71.484375 23.417969 73.222656 23.59375 C 73.984375 23.652344 75.097656 23.378906 79.804688 21.875 C 82.910156 20.898438 85.644531 19.960938 85.878906 19.804688 C 86.113281 19.667969 86.347656 19.355469 86.425781 19.140625 C 86.621094 18.554688 86.035156 17.773438 85.429688 17.773438 C 85.136719 17.773438 82.421875 18.574219 79.375 19.550781 C 76.328125 20.527344 73.632812 21.289062 73.378906 21.25 C 72.460938 21.113281 72.753906 20.449219 75.78125 15.996094 C 77.382812 13.613281 78.808594 11.308594 78.90625 10.898438 C 79.316406 9.414062 78.28125 7.65625 76.738281 7.226562 C 75.9375 6.992188 76.308594 6.953125 72.65625 7.617188 Z M 72.65625 7.617188 "/>
<path style=" stroke:none;fill-rule:nonzero;fill:rgb(0%,0%,0%);fill-opacity:1;" d="M 90.664062 18.085938 C 90.136719 18.457031 90.097656 19.335938 90.585938 19.785156 C 90.761719 19.941406 91.210938 20.15625 91.582031 20.253906 L 92.265625 20.429688 L 90.976562 21.25 C 90.253906 21.699219 89.550781 22.246094 89.375 22.5 C 88.886719 23.203125 88.984375 24.160156 89.609375 24.785156 C 90.058594 25.253906 90.410156 25.351562 91.914062 25.546875 C 92.890625 25.683594 93.945312 25.78125 94.277344 25.78125 C 95 25.78125 95.507812 25.351562 95.507812 24.726562 C 95.507812 23.945312 95.078125 23.632812 93.75 23.417969 C 93.066406 23.320312 92.460938 23.183594 92.421875 23.164062 C 92.402344 23.125 92.949219 22.734375 93.632812 22.285156 C 95.136719 21.289062 95.507812 20.566406 95.058594 19.492188 C 94.746094 18.75 94.316406 18.496094 92.65625 18.066406 C 91.171875 17.714844 91.191406 17.695312 90.664062 18.085938 Z M 90.664062 18.085938 "/>
<path style=" stroke:none;fill-rule:nonzero;fill:rgb(0%,0%,0%);fill-opacity:1;" d="M 42.578125 25.78125 C 33.359375 26.40625 25.800781 27.480469 19.0625 29.140625 L 15.761719 29.960938 L 14.570312 29.609375 C 11.757812 28.828125 10.507812 28.632812 9.570312 28.886719 C 7.675781 29.394531 7.109375 30.527344 7.285156 33.476562 C 7.382812 34.941406 7.34375 35.703125 7.128906 36.40625 C 6.601562 38.125 5.488281 43.398438 5.078125 46.074219 C 4.414062 50.390625 4.101562 54.863281 4.101562 60.253906 C 4.101562 67.695312 4.707031 73.632812 6.171875 80.664062 C 6.542969 82.421875 6.835938 84.179688 6.835938 84.550781 C 6.835938 85 6.5625 85.683594 6.015625 86.601562 C 5.253906 87.851562 5.175781 88.085938 5.175781 89.277344 C 5.175781 90.449219 5.234375 90.664062 5.78125 91.328125 C 6.855469 92.675781 7.5 92.871094 10.9375 92.890625 C 13.574219 92.929688 14.277344 93.007812 16.40625 93.515625 C 27.246094 96.132812 37.5 97.226562 49.414062 97.011719 C 60.9375 96.796875 70.234375 95.644531 81.347656 93.046875 C 83.378906 92.578125 85.351562 92.1875 85.742188 92.1875 C 86.113281 92.1875 86.992188 92.363281 87.65625 92.578125 C 89.023438 93.007812 91.074219 93.085938 92.246094 92.753906 C 93.378906 92.441406 94.472656 91.367188 94.6875 90.332031 C 94.980469 88.964844 94.609375 87.558594 93.535156 85.996094 C 92.832031 84.980469 92.8125 85.273438 93.808594 80.46875 C 94.53125 76.992188 95.097656 73.28125 95.546875 69.042969 C 95.878906 65.976562 95.878906 54.394531 95.546875 51.367188 C 94.980469 46.289062 94.179688 41.660156 93.144531 37.636719 L 92.539062 35.351562 L 92.871094 34.042969 C 93.320312 32.246094 93.144531 31.171875 92.265625 30.332031 C 91.894531 29.980469 91.269531 29.609375 90.859375 29.492188 C 89.726562 29.179688 87.519531 29.257812 86.054688 29.667969 L 84.707031 30.039062 L 82.832031 29.472656 C 77.246094 27.734375 71.679688 26.699219 63.964844 25.957031 C 61.230469 25.703125 45.800781 25.566406 42.578125 25.78125 Z M 64.0625 28.417969 C 70.800781 29.023438 76.796875 30.078125 81.035156 31.386719 C 84.394531 32.421875 84.609375 32.441406 86.308594 31.992188 C 88.75 31.328125 90.820312 31.503906 90.820312 32.382812 C 90.820312 32.558594 90.664062 33.300781 90.488281 34.023438 L 90.15625 35.351562 L 90.878906 38.320312 C 92.96875 46.777344 93.691406 53.398438 93.496094 62.207031 C 93.339844 69.453125 92.65625 75 91.09375 81.992188 C 90.722656 83.632812 90.429688 85.15625 90.429688 85.371094 C 90.429688 85.605469 90.820312 86.308594 91.308594 86.953125 C 92.65625 88.730469 92.8125 89.882812 91.796875 90.429688 C 91.191406 90.761719 89.316406 90.644531 87.871094 90.214844 C 86.074219 89.667969 84.824219 89.765625 80.488281 90.800781 C 74.082031 92.34375 66.503906 93.554688 58.984375 94.277344 C 53.847656 94.765625 40.234375 94.765625 35.351562 94.277344 C 28.671875 93.59375 22.675781 92.617188 17.1875 91.269531 C 14.609375 90.644531 14.082031 90.585938 11.308594 90.566406 C 8.59375 90.527344 8.203125 90.488281 7.832031 90.15625 C 7.226562 89.609375 7.324219 88.945312 8.242188 87.441406 C 9.375 85.566406 9.414062 84.785156 8.535156 80.566406 C 7.832031 77.226562 7.265625 73.59375 6.796875 69.628906 C 6.445312 66.679688 6.464844 54.003906 6.796875 50.878906 C 7.226562 47.070312 8.125 42.011719 9.003906 38.613281 C 9.453125 36.875 9.824219 35.273438 9.804688 35.058594 C 9.785156 34.84375 9.726562 33.945312 9.648438 33.085938 C 9.53125 31.582031 9.550781 31.464844 9.941406 31.269531 C 10.449219 30.976562 11.25 31.113281 13.75 31.855469 L 15.664062 32.441406 L 18.242188 31.757812 C 24.765625 29.980469 33.574219 28.691406 42.96875 28.125 C 47.265625 27.871094 60.039062 28.046875 64.0625 28.417969 Z M 64.0625 28.417969 "/>
</g>
</svg>
