<?xml version="1.0" encoding="UTF-8"?>
<svg xmlns="http://www.w3.org/2000/svg" xmlns:xlink="http://www.w3.org/1999/xlink" width="100px" height="100px" viewBox="0 0 100 100" version="1.1">
<g id="surface1">
<path style=" stroke:none;fill-rule:nonzero;fill:rgb(0%,0%,0%);fill-opacity:1;" d="M 41.25 5.878906 C 29.511719 7.304688 20.234375 16.269531 18.457031 27.929688 C 18.300781 28.945312 18.164062 30.449219 18.164062 31.25 C 18.144531 35.546875 16.523438 38.417969 12.597656 41.074219 C 10.15625 42.753906 6.660156 46.289062 5.019531 48.730469 C 2.832031 52.050781 1.40625 55.429688 0.546875 59.453125 C -0.0585938 62.285156 -0.0585938 67.949219 0.546875 70.839844 C 2.949219 82.070312 11.347656 90.78125 22.304688 93.457031 C 25.898438 94.335938 27.207031 94.375 51.464844 94.277344 C 76.367188 94.199219 75 94.257812 79.199219 93.066406 C 81.230469 92.5 86.210938 90.097656 87.089844 89.277344 C 87.8125 88.59375 87.890625 87.695312 87.304688 87.109375 C 86.71875 86.523438 85.917969 86.640625 84.453125 87.539062 C 81.796875 89.140625 78.847656 90.273438 75.46875 90.957031 C 73.847656 91.289062 72.109375 91.308594 49.902344 91.308594 L 26.074219 91.308594 L 24.082031 90.859375 C 18.4375 89.609375 14.277344 87.324219 10.390625 83.320312 C 6.777344 79.589844 4.609375 75.566406 3.476562 70.488281 C 2.890625 67.8125 2.851562 62.714844 3.378906 60.175781 C 4.941406 52.832031 8.789062 47.148438 15 42.988281 C 18.886719 40.371094 21.09375 36.191406 21.09375 31.445312 C 21.09375 27.167969 22.636719 22.402344 25.234375 18.59375 C 27.851562 14.765625 32.324219 11.367188 36.71875 9.902344 C 40 8.808594 40.566406 8.75 48.710938 8.652344 C 56.953125 8.554688 58.886719 8.671875 61.914062 9.492188 C 68.066406 11.132812 73.515625 15.625 76.464844 21.484375 C 78.027344 24.609375 78.652344 27.128906 78.90625 31.328125 C 79.042969 33.59375 79.199219 34.667969 79.570312 35.859375 C 80.488281 38.75 82.363281 41.210938 85 42.988281 C 89.316406 45.898438 92.363281 49.375 94.53125 53.945312 C 98.4375 62.167969 97.734375 71.992188 92.695312 79.570312 C 92.109375 80.449219 91.152344 81.71875 90.546875 82.382812 C 89.941406 83.046875 89.394531 83.828125 89.335938 84.101562 C 89.140625 84.863281 89.804688 85.625 90.703125 85.703125 C 91.367188 85.761719 91.523438 85.664062 92.441406 84.667969 C 95.976562 80.820312 98.535156 75.625 99.53125 70.214844 C 100.078125 67.363281 100.019531 62.148438 99.453125 59.453125 C 97.773438 51.582031 93.4375 45.15625 86.816406 40.683594 C 84.589844 39.179688 82.890625 36.953125 82.246094 34.667969 C 82.109375 34.238281 81.933594 32.597656 81.835938 31.035156 C 81.640625 27.929688 81.308594 26.015625 80.546875 23.710938 C 78.125 16.25 72.1875 10.078125 64.84375 7.363281 C 60.957031 5.917969 60.058594 5.820312 50.878906 5.742188 C 46.367188 5.722656 42.03125 5.78125 41.25 5.878906 Z M 41.25 5.878906 "/>
<path style=" stroke:none;fill-rule:nonzero;fill:rgb(0%,0%,0%);fill-opacity:1;" d="M 15.683594 52.519531 C 14.785156 52.910156 14.570312 54.179688 15.292969 54.824219 C 15.664062 55.15625 16.074219 55.234375 18.066406 55.332031 C 21.5625 55.507812 24.375 56.347656 26.972656 58.027344 C 27.460938 58.339844 28.105469 58.59375 28.378906 58.59375 C 29.121094 58.59375 29.6875 57.949219 29.6875 57.148438 C 29.6875 56.601562 29.550781 56.347656 28.964844 55.859375 C 27.773438 54.902344 24.863281 53.554688 22.753906 53.027344 C 20.625 52.480469 16.464844 52.1875 15.683594 52.519531 Z M 15.683594 52.519531 "/>
<path style=" stroke:none;fill-rule:nonzero;fill:rgb(0%,0%,0%);fill-opacity:1;" d="M 79.53125 52.539062 C 75.371094 53.125 71.894531 54.804688 68.515625 57.929688 C 65.859375 60.371094 63.671875 61.582031 60.683594 62.304688 C 59.199219 62.65625 58.359375 62.695312 50 62.695312 C 41.640625 62.695312 40.800781 62.65625 39.316406 62.304688 C 37.539062 61.875 35.78125 61.132812 34.296875 60.195312 C 33.730469 59.824219 33.066406 59.570312 32.714844 59.570312 C 31.484375 59.570312 30.9375 61.054688 31.816406 61.992188 C 32.460938 62.675781 35.820312 64.355469 37.792969 64.980469 L 39.550781 65.527344 L 60.449219 65.527344 L 62.1875 64.980469 C 65.527344 63.945312 67.5 62.714844 71.582031 59.160156 C 73.164062 57.792969 76.113281 56.269531 78.203125 55.761719 C 78.964844 55.585938 80.625 55.390625 81.914062 55.332031 C 83.925781 55.234375 84.335938 55.15625 84.726562 54.824219 C 85.253906 54.335938 85.292969 53.515625 84.785156 52.910156 C 84.433594 52.480469 84.238281 52.441406 82.578125 52.402344 C 81.582031 52.382812 80.214844 52.460938 79.53125 52.539062 Z M 79.53125 52.539062 "/>
</g>
</svg>
