<?xml version="1.0" encoding="UTF-8"?>
<svg xmlns="http://www.w3.org/2000/svg" xmlns:xlink="http://www.w3.org/1999/xlink" width="100px" height="100px" viewBox="0 0 100 100" version="1.1">
<g id="surface1">
<path style=" stroke:none;fill-rule:nonzero;fill:rgb(0%,0%,0%);fill-opacity:1;" d="M 75.140625 33.324219 C 72.722656 33.722656 70.59375 35.027344 69.035156 37.066406 C 67.359375 39.269531 66.398438 42.359375 66.230469 46.148438 C 66.15625 47.859375 66.148438 47.878906 64.628906 48.59375 C 64.046875 48.871094 63.535156 49.140625 63.5 49.203125 C 63.390625 49.359375 63.417969 49.769531 63.535156 49.890625 C 63.609375 49.964844 64.007812 50 64.722656 50 C 65.507812 50 65.84375 50.035156 65.980469 50.128906 C 66.148438 50.257812 66.15625 50.433594 66.15625 57.054688 C 66.15625 63.816406 66.15625 63.84375 65.953125 64.277344 C 65.703125 64.832031 65.398438 64.980469 64.214844 65.175781 C 63.324219 65.324219 63.285156 65.34375 63.214844 65.601562 C 63.167969 65.769531 63.175781 65.972656 63.222656 66.109375 L 63.316406 66.34375 L 72.917969 66.34375 L 73 66.082031 C 73.054688 65.925781 73.054688 65.742188 73 65.574219 C 72.90625 65.304688 73.046875 65.34375 71.140625 65.128906 C 70.535156 65.066406 70.101562 64.785156 69.859375 64.304688 C 69.683594 63.945312 69.675781 63.722656 69.648438 57.195312 L 69.621094 50.464844 L 69.859375 50.222656 L 70.09375 49.992188 L 73.824219 50.019531 C 78.082031 50.046875 78 50.035156 78.359375 50.816406 C 78.566406 51.25 78.566406 51.285156 78.566406 57.546875 L 78.566406 63.84375 L 78.359375 64.285156 C 78.109375 64.824219 77.722656 65.027344 76.59375 65.183594 C 75.890625 65.285156 75.816406 65.324219 75.730469 65.546875 C 75.675781 65.683594 75.667969 65.898438 75.714844 66.066406 L 75.796875 66.332031 L 80.304688 66.34375 C 83.972656 66.34375 84.824219 66.324219 84.859375 66.222656 C 84.925781 66.035156 84.917969 65.527344 84.832031 65.40625 C 84.796875 65.351562 84.359375 65.25 83.859375 65.167969 C 82.824219 65 82.40625 64.75 82.203125 64.195312 C 82.109375 63.90625 82.082031 62.371094 82.082031 56.433594 C 82.082031 52.359375 82.109375 48.714844 82.148438 48.332031 C 82.214844 47.695312 82.203125 47.621094 82.027344 47.519531 C 81.878906 47.425781 81.757812 47.425781 81.359375 47.546875 C 80.140625 47.890625 78.84375 47.980469 74.507812 48.027344 C 72.175781 48.054688 70.175781 48.046875 70.054688 48.019531 C 69.648438 47.917969 69.601562 47.59375 69.65625 45.109375 C 69.742188 41.648438 70.128906 39.464844 70.972656 37.714844 C 72.75 34.046875 76.59375 34.054688 79.074219 37.730469 C 79.425781 38.25 79.640625 38.480469 79.890625 38.582031 C 80.574219 38.871094 81.507812 38.554688 81.992188 37.878906 C 82.242188 37.527344 82.269531 37.40625 82.269531 36.824219 C 82.269531 35.992188 82.082031 35.59375 81.390625 34.90625 C 80.816406 34.332031 79.84375 33.804688 78.84375 33.507812 C 78.121094 33.296875 75.972656 33.195312 75.140625 33.324219 Z M 75.140625 33.324219 "/>
<path style=" stroke:none;fill-rule:nonzero;fill:rgb(0%,0%,0%);fill-opacity:1;" d="M 19.722656 35.703125 C 18.703125 35.757812 16.535156 35.933594 16.332031 35.980469 C 16.128906 36.035156 15.925781 36.371094 15.925781 36.65625 C 15.925781 37.027344 16.121094 37.121094 17.332031 37.269531 C 18.621094 37.425781 18.890625 37.507812 19.285156 37.859375 C 19.648438 38.195312 19.796875 38.59375 19.90625 39.527344 C 20.035156 40.628906 20.027344 61.25 19.90625 62.507812 C 19.722656 64.371094 19.316406 64.785156 17.378906 65.121094 C 16.757812 65.230469 16.222656 65.359375 16.183594 65.40625 C 16.082031 65.546875 16.09375 66.09375 16.195312 66.277344 C 16.269531 66.417969 16.425781 66.425781 17.742188 66.371094 C 19.609375 66.296875 24.285156 66.296875 26.378906 66.378906 C 27.90625 66.433594 27.992188 66.425781 28.109375 66.25 C 28.269531 66.027344 28.277344 65.519531 28.128906 65.390625 C 28.066406 65.34375 27.492188 65.230469 26.851562 65.148438 C 25.378906 64.964844 24.90625 64.804688 24.5 64.351562 C 23.804688 63.574219 23.84375 64.5 23.824219 50.417969 C 23.804688 40.332031 23.824219 37.777344 23.917969 37.59375 C 24.140625 37.148438 24.445312 37.082031 26.15625 37.082031 C 27.472656 37.09375 27.871094 37.121094 28.566406 37.296875 C 31.222656 37.964844 32.980469 39.785156 33.527344 42.453125 C 33.695312 43.230469 33.714844 43.609375 33.675781 44.859375 C 33.640625 46.128906 33.601562 46.464844 33.390625 47.175781 C 32.953125 48.609375 32.324219 49.574219 31.25 50.433594 C 30.285156 51.203125 28.871094 51.832031 27.453125 52.128906 C 26.851562 52.25 26.757812 52.324219 26.757812 52.695312 C 26.757812 53.148438 26.925781 53.195312 28.222656 53.074219 C 30.203125 52.890625 31.75 52.492188 33.316406 51.75 C 34.359375 51.269531 35.101562 50.722656 35.964844 49.804688 C 36.527344 49.203125 36.769531 48.851562 37.128906 48.109375 C 37.804688 46.714844 37.917969 46.167969 37.90625 44.351562 C 37.90625 42.964844 37.878906 42.75 37.65625 42.007812 C 36.742188 39.007812 34.667969 37.148438 31.277344 36.25 C 29.433594 35.769531 28.777344 35.714844 24.398438 35.695312 C 22.15625 35.683594 20.054688 35.683594 19.722656 35.703125 Z M 19.722656 35.703125 "/>
<path style=" stroke:none;fill-rule:nonzero;fill:rgb(0%,0%,0%);fill-opacity:1;" d="M 44.417969 47.648438 C 43.5 47.917969 42.15625 48.140625 40.972656 48.222656 L 40.046875 48.285156 L 39.964844 48.628906 C 39.851562 49.066406 39.953125 49.195312 40.695312 49.527344 C 41.332031 49.816406 41.609375 50.074219 41.84375 50.554688 C 41.972656 50.84375 42 51.609375 42.046875 56.851562 C 42.09375 62.703125 42.101562 62.84375 42.304688 63.519531 C 42.84375 65.296875 43.796875 66.242188 45.554688 66.722656 C 46.007812 66.851562 46.492188 66.890625 47.546875 66.890625 C 48.785156 66.878906 49.027344 66.859375 49.769531 66.628906 C 50.769531 66.332031 51.84375 65.832031 53.140625 65.074219 L 54.101562 64.5 L 54.269531 64.714844 C 54.417969 64.898438 54.445312 65.09375 54.445312 66.027344 C 54.445312 67.09375 54.453125 67.128906 54.675781 67.277344 C 54.890625 67.417969 54.933594 67.40625 55.667969 67.101562 C 56.609375 66.695312 57.65625 66.398438 59.535156 66.007812 C 61.128906 65.675781 61.296875 65.582031 61.296875 65.007812 C 61.296875 64.40625 61.183594 64.351562 60.277344 64.507812 C 58.890625 64.75 58.433594 64.535156 58.082031 63.492188 C 57.925781 63.046875 57.917969 62.417969 57.898438 55.285156 C 57.890625 48.824219 57.859375 47.554688 57.757812 47.492188 C 57.683594 47.453125 57.398438 47.5 57.109375 47.59375 C 56.277344 47.859375 54.109375 48.183594 52.546875 48.257812 C 52.148438 48.285156 52.066406 48.324219 51.964844 48.535156 C 51.757812 48.972656 51.925781 49.175781 52.785156 49.527344 C 53.222656 49.703125 53.695312 49.972656 53.859375 50.140625 C 54.390625 50.667969 54.398438 50.742188 54.398438 56.574219 C 54.398438 61.492188 54.390625 61.933594 54.230469 62.332031 C 53.898438 63.203125 53.167969 63.851562 51.992188 64.34375 C 51.066406 64.730469 50.324219 64.851562 49.277344 64.785156 C 47.035156 64.667969 45.917969 63.609375 45.566406 61.296875 C 45.480469 60.804688 45.453125 58.675781 45.472656 54.082031 C 45.492188 46.554688 45.609375 47.296875 44.417969 47.648438 Z M 44.417969 47.648438 "/>
</g>
</svg>
