<?xml version="1.0" encoding="UTF-8"?>
<svg xmlns="http://www.w3.org/2000/svg" xmlns:xlink="http://www.w3.org/1999/xlink" width="100px" height="100px" viewBox="0 0 100 100" version="1.1">
<g id="surface1">
<path style=" stroke:none;fill-rule:nonzero;fill:rgb(0%,0%,0%);fill-opacity:1;" d="M 42.285156 0.214844 C 30.585938 1.308594 20.234375 5.917969 11.171875 14.042969 C 9.121094 15.878906 8.789062 16.621094 9.648438 17.460938 C 10.019531 17.851562 10.371094 17.949219 11.835938 18.066406 C 16.5625 18.4375 20.507812 19.863281 24.0625 22.5 C 29.570312 26.582031 32.773438 32.382812 33.378906 39.355469 C 33.59375 41.875 33.769531 42.089844 35.507812 42.265625 C 39.570312 42.675781 42.5 43.398438 44.941406 44.648438 C 47.5 45.9375 50.3125 48.144531 52.089844 50.214844 C 55.644531 54.394531 57.109375 58.105469 57.734375 64.492188 C 57.910156 66.230469 58.125 66.40625 60.644531 66.621094 C 67.617188 67.226562 73.417969 70.429688 77.5 75.9375 C 80.117188 79.453125 81.5625 83.417969 81.933594 88.085938 C 82.011719 88.984375 82.148438 89.902344 82.246094 90.097656 C 82.539062 90.625 83.359375 90.878906 84.003906 90.625 C 85 90.195312 89.003906 85.449219 91.328125 81.933594 C 104.414062 62.03125 102.460938 35.507812 86.640625 17.792969 L 85.527344 16.5625 L 87.285156 14.746094 C 89.257812 12.753906 89.433594 12.265625 88.574219 11.425781 C 87.734375 10.566406 87.246094 10.742188 85.253906 12.714844 L 83.4375 14.472656 L 82.207031 13.359375 C 77.8125 9.453125 72.285156 6.015625 66.796875 3.808594 C 59.316406 0.800781 50.273438 -0.527344 42.285156 0.214844 Z M 53.125 3.320312 C 61.210938 4.335938 68.808594 7.226562 75.429688 11.796875 C 76.367188 12.441406 77.109375 12.988281 77.089844 13.027344 C 77.050781 13.046875 76.328125 13.183594 75.46875 13.300781 C 71.914062 13.769531 68.417969 14.980469 63.574219 17.382812 C 59.414062 19.453125 57.773438 20.488281 57.539062 21.113281 C 57.285156 21.835938 57.753906 22.695312 58.535156 22.910156 C 59.082031 23.085938 59.375 22.96875 61.269531 21.914062 C 68.378906 17.910156 74.628906 15.800781 78.4375 16.074219 C 84.355469 16.503906 85.546875 21.835938 81.816406 31.191406 C 78.496094 39.53125 71.210938 50.136719 62.109375 59.921875 C 61.269531 60.800781 60.546875 61.523438 60.488281 61.523438 C 60.429688 61.523438 60.332031 61.152344 60.253906 60.683594 C 59.492188 55.957031 56.699219 50.605469 53.046875 46.953125 C 49.511719 43.417969 44.277344 40.625 39.746094 39.824219 C 39.042969 39.707031 38.476562 39.53125 38.515625 39.453125 C 38.59375 39.238281 41.445312 36.621094 43.945312 34.453125 C 46.660156 32.109375 49.316406 29.980469 52.578125 27.578125 C 55.351562 25.527344 55.722656 25.058594 55.273438 24.238281 C 54.941406 23.613281 54.179688 23.183594 53.671875 23.359375 C 52.265625 23.789062 43.300781 30.976562 37.578125 36.230469 L 36.171875 37.5 L 35.9375 36.191406 C 35.644531 34.414062 34.570312 31.230469 33.671875 29.453125 C 31.679688 25.507812 28.496094 21.894531 24.765625 19.355469 C 22.363281 17.734375 18.417969 16.132812 15.546875 15.605469 C 14.84375 15.46875 14.257812 15.3125 14.257812 15.253906 C 14.277344 15.058594 17.207031 12.773438 19.140625 11.484375 C 25.644531 7.070312 33.515625 4.140625 41.015625 3.320312 C 42.03125 3.222656 43.183594 3.085938 43.554688 3.046875 C 44.726562 2.910156 51.367188 3.105469 53.125 3.320312 Z M 88.222656 24.609375 C 94.433594 33.554688 97.675781 45.195312 96.914062 55.859375 C 96.25 64.980469 93.554688 73.144531 88.847656 80.292969 C 87.324219 82.617188 84.980469 85.722656 84.746094 85.742188 C 84.6875 85.742188 84.53125 85.15625 84.394531 84.453125 C 83.203125 77.96875 79.121094 71.875 73.398438 68.007812 C 70.625 66.152344 66.835938 64.570312 63.828125 64.0625 L 62.5 63.828125 L 63.691406 62.519531 C 69.902344 55.722656 73.632812 51.054688 77.441406 45.3125 C 82.949219 37.03125 85.996094 30.019531 86.816406 23.769531 C 86.894531 23.242188 86.972656 22.851562 87.011719 22.890625 C 87.03125 22.910156 87.578125 23.691406 88.222656 24.609375 Z M 88.222656 24.609375 "/>
<path style=" stroke:none;fill-rule:nonzero;fill:rgb(0%,0%,0%);fill-opacity:1;" d="M 47.460938 50.722656 C 47.304688 50.78125 40.15625 57.8125 31.601562 66.367188 L 16.035156 81.914062 L 15.488281 81.40625 C 14.726562 80.703125 14.101562 80.410156 13.613281 80.546875 C 13.378906 80.605469 10.214844 83.613281 6.582031 87.246094 C 0.9375 92.910156 0 93.945312 0 94.433594 C 0 94.902344 0.429688 95.449219 2.5 97.5 C 4.550781 99.570312 5.097656 100 5.566406 100 C 6.054688 100 7.089844 99.0625 12.753906 93.417969 C 16.386719 89.785156 19.394531 86.621094 19.453125 86.386719 C 19.589844 85.898438 19.296875 85.273438 18.59375 84.511719 L 18.085938 83.964844 L 33.671875 68.378906 C 47.929688 54.121094 49.277344 52.714844 49.277344 52.128906 C 49.277344 51.679688 49.121094 51.367188 48.75 51.035156 C 48.222656 50.585938 48.007812 50.527344 47.460938 50.722656 Z M 14.941406 85.15625 L 15.917969 86.132812 L 5.566406 96.484375 L 3.515625 94.433594 L 8.632812 89.316406 C 11.464844 86.484375 13.808594 84.179688 13.867188 84.179688 C 13.925781 84.179688 14.414062 84.628906 14.941406 85.15625 Z M 14.941406 85.15625 "/>
</g>
</svg>
